<?xml version="1.0" standalone="no"?>
<!DOCTYPE svg PUBLIC "-//W3C//DTD SVG 20010904//EN"
 "http://www.w3.org/TR/2001/REC-SVG-20010904/DTD/svg10.dtd">
<svg version="1.0" xmlns="http://www.w3.org/2000/svg"
 width="512.000000pt" height="512.000000pt" viewBox="0 0 512.000000 512.000000"
 preserveAspectRatio="xMidYMid meet">
<metadata>
Created by potrace 1.11, written by Peter Selinger 2001-2013
</metadata>
<g transform="translate(0.000000,512.000000) scale(0.100000,-0.100000)"
fill="#000000" stroke="none">
<path d="M1739 5005 c-3 -2 -44 -5 -93 -6 -203 -4 -384 -60 -536 -166 -90 -63
-190 -145 -190 -156 0 -5 61 -80 136 -167 l135 -159 71 55 c144 111 257 160
379 163 174 5 258 -79 246 -244 -9 -125 -60 -214 -229 -397 -131 -142 -160
-173 -457 -472 l-276 -280 0 -173 0 -173 762 0 763 0 0 213 0 213 -431 -1
c-237 0 -435 2 -439 5 -13 8 -7 14 120 129 170 155 471 458 516 521 92 127
153 256 170 361 12 80 11 220 -3 281 -55 239 -278 413 -568 444 -33 3 -63 7
-66 10 -3 2 -8 2 -10 -1z"/>
<path d="M2943 4972 l-133 -3 -1 -47 c-1 -26 -2 -58 -4 -72 -1 -14 -6 -72 -9
-130 -4 -58 -9 -125 -11 -150 -2 -25 -7 -83 -10 -130 -5 -82 -12 -176 -20
-270 -2 -25 -7 -90 -10 -145 -3 -55 -8 -111 -10 -125 -3 -14 -1 -30 3 -36 4
-5 49 -31 100 -56 l93 -45 77 19 c100 25 305 33 382 14 73 -18 88 -24 136 -57
64 -43 97 -108 102 -200 8 -143 -44 -242 -154 -290 -68 -31 -94 -34 -244 -33
-153 1 -277 26 -441 89 -50 19 -92 35 -93 35 -1 0 -2 -95 -2 -211 l1 -211 25
-13 c172 -90 594 -131 840 -81 284 57 474 216 548 457 49 161 50 351 1 510
-66 218 -262 380 -504 416 -67 10 -234 8 -295 -4 -97 -18 -92 -22 -85 50 8 82
12 127 20 212 4 39 9 72 11 74 2 2 170 4 374 4 257 0 370 4 371 11 3 48 1 408
-3 412 -6 5 -849 11 -1055 6z"/>
<path d="M320 2560 l0 -40 2240 0 2240 0 0 40 0 40 -2240 0 -2240 0 0 -40z"/>
<path d="M2505 2120 c-349 -3 -541 -9 -542 -15 -1 -6 -4 -62 -8 -125 -4 -63
-8 -128 -10 -144 -2 -16 -7 -74 -11 -130 -3 -56 -8 -117 -9 -136 -2 -19 -6
-80 -10 -135 -4 -55 -8 -116 -10 -135 -2 -19 -6 -84 -10 -145 l-7 -110 96 -47
95 -47 53 13 c90 23 130 29 220 31 250 8 391 -82 402 -259 19 -278 -232 -385
-649 -280 -71 18 -184 58 -225 79 l-30 16 0 -210 0 -209 48 -20 c54 -23 176
-58 236 -68 21 -3 48 -8 60 -10 11 -3 89 -7 171 -9 273 -8 452 31 607 132 119
78 196 181 245 328 22 68 26 101 29 225 5 235 -39 368 -165 498 -66 67 -192
140 -276 158 -83 18 -123 22 -214 22 -92 -1 -125 -4 -210 -24 l-24 -5 6 73
c10 120 19 212 22 228 2 8 4 22 4 30 1 14 41 16 349 15 191 0 354 1 362 3 13
3 15 32 14 195 -1 106 -2 197 -3 203 -2 19 -36 19 -606 14z"/>
</g>
</svg>
